<?xml version="1.0" encoding="utf-8"?>
<!-- Generator: Adobe Illustrator 26.4.1, SVG Export Plug-In . SVG Version: 6.00 Build 0)  -->
<svg version="1.1" id="Layer_1" xmlns="http://www.w3.org/2000/svg" xmlns:xlink="http://www.w3.org/1999/xlink" x="0px" y="0px"
	 viewBox="0 0 180 200" style="enable-background:new 0 0 180 200;" xml:space="preserve">
<style type="text/css">
	.st0{opacity:0.3;fill:#2DD4BF;}
	.st1{fill:#CCFBF1;}
	.st2{fill:#99F6E4;}
	.st3{fill:#2DD4BF;}
	.st4{opacity:0.5;fill:#0F172A;enable-background:new    ;}
	.st5{fill:#0F172A;}
</style>
<g>
	<path class="st0" d="M173,106.2L59.4,5.6c-2.5-2.3-5.5-3.8-8.8-4.4c-10.7-1.9-21,5.9-23,17.4L0.3,174.5c-2,11.5,5.1,22.4,15.8,24.3
		c3.3,0.6,6.7,0.2,10-1.1l140.7-55.1c6.6-2.6,11.6-8.8,12.9-16.3C181,118.9,178.4,111.2,173,106.2z"/>
	<g>
		<g>
			<path class="st1" d="M165.7,69.4L30.2,2c-3-1.6-6.3-2.3-9.7-2C9.7,1,1.7,11.3,2.7,22.9l13.6,157.7c1,11.6,10.6,20.3,21.5,19.3
				c3.3-0.3,6.5-1.5,9.4-3.6L169,106.1c5.7-4.2,8.9-11.6,8.2-19.2C176.6,79.6,172.2,72.8,165.7,69.4z"/>
			<path class="st2" d="M163.8,73.4L28.6,6C17.9,0.7,5.8,9.8,6.9,22.5l8.1,93.9c19,12.9,41.9,19.5,66.1,17.4
				c37.2-3.3,68.1-26.8,84.5-59.4C164.9,73.9,164.5,73.8,163.8,73.4z"/>
			<path class="st3" d="M136.4,59.7L61.2,22.3C38.1,27,19.5,43.7,10.6,65.7l6,69.8l0.1,0.9l3.8,43.7c1.1,12.7,14.6,19.5,24.2,12.4
				l30-22.3l0,0l66.8-49.5c3.1-9.8,4.5-20.3,3.6-31.3C144,78.7,141.1,68.5,136.4,59.7z"/>
			<path class="st4" d="M15.9,127.2l4.6,53.1c1.1,12.7,14.6,19.5,24.2,12.4l27-20.1C62.5,147.8,41,130,15.9,127.2z"/>
		</g>
		<g>
			<path class="st5" d="M61.7,68.9c3.9-3.4,8.9-4.8,13.7-4.3c5.1,0.4,9.5,2.9,12.9,6.8c2.5,2.9,3.9,6.7,4.2,10.5
				c0.4,4.4-0.4,8-2.1,11.2c-1,1.6-0.3,3.8,1.3,4.7c0.7,0.4,1.4,0.5,2,0.5c1.1-0.1,2.2-0.6,2.7-1.8c2.5-4.4,3.6-9.6,3.1-15.5
				c-0.5-5.3-2.6-10.2-5.9-14.5C89.2,61.2,83,58,76.1,57.3c-6.9-0.7-13.8,1.4-19.1,5.9c-1.4,1.2-1.7,3.2-0.5,4.9
				C57.8,69.9,60,70.2,61.7,68.9z"/>
			<path class="st5" d="M69.5,75.3c0.2,2,1.8,3.2,3.6,3c2.8-0.3,5.5,1.9,5.7,4.8c0.2,2,1.8,3.2,3.6,3s3.2-1.8,3-3.6
				c-0.6-6.8-6.5-11.6-13.1-11C70.7,71.9,69.3,73.6,69.5,75.3z"/>
			<path class="st5" d="M112.6,125L37.9,61.8c-1.4-1.2-3.6-1-4.8,0.4c-1.2,1.4-1,3.6,0.4,4.8l15,12.6c-0.2,2.2-0.5,4.2-0.3,6.4
				c0.2,2,1.8,3.2,3.6,3c2-0.2,3.2-1.8,3-3.6l0-0.2l13.1,11c-0.4,0.3-1.1,0.5-1.7,0.6c-2,0.2-3.2,1.8-3,3.6c0.2,2,1.8,3.2,3.6,3l0,0
				c2.6-0.2,4.5-1.3,6.4-3l6.4,5.4c-2.6,3.3-4.9,7.3-4.4,12.6c0.4,4.8-3,9.1-7.8,9.5c-4.8,0.4-8.9-3-9.3-8c-0.2-2-1.8-3.2-3.6-3
				c-2,0.2-3.2,1.8-3,3.6c0.8,8.8,8.4,15,16.9,14.2s14.9-8.4,14.2-17c-0.3-3.1,0.9-4.9,2.7-7.5l23.6,20c0.7,0.6,1.6,1,2.7,0.9
				s1.7-0.6,2.5-1.3C114.2,128.4,114,126.2,112.6,125z"/>
		</g>
	</g>
</g>
</svg>
